<svg version="1.1" id="Layer_1" xmlns="http://www.w3.org/2000/svg" xmlns:xlink="http://www.w3.org/1999/xlink" x="0px" y="0px"
	 width="100%" viewBox="0 0 512 512" enable-background="new 0 0 512 512" xml:space="preserve">
<path fill="#FEFEFF" opacity="1.000000" stroke="none" 
	d="
M282.000000,513.000000 
	C188.022812,513.000000 94.545624,513.000000 1.034216,513.000000 
	C1.034216,342.397797 1.034216,171.795563 1.034216,1.096670 
	C171.560532,1.096670 342.121155,1.096670 512.840881,1.096670 
	C512.840881,171.666550 512.840881,342.333252 512.840881,513.000000 
	C436.128876,513.000000 359.314423,513.000000 282.000000,513.000000 
M15.225139,314.499939 
	C15.225139,351.253326 15.225139,388.006744 15.225139,425.021606 
	C17.679186,425.021606 19.497030,425.021637 21.314875,425.021637 
	C53.135742,425.021637 84.956734,425.068451 116.777359,424.980896 
	C122.926849,424.963989 129.124649,424.817780 135.215103,424.053436 
	C163.632339,420.487183 187.172028,408.843597 203.186737,383.862488 
	C220.040710,357.572266 228.252029,328.652435 231.011642,297.932983 
	C233.729218,267.681641 234.180511,237.401779 231.083191,207.135391 
	C228.653793,183.395813 224.488144,160.027039 215.105957,137.915314 
	C194.581451,89.543587 165.042358,73.353493 120.240891,73.917542 
	C87.092461,74.334877 53.934566,73.999580 20.780891,73.999580 
	C19.023327,73.999580 17.265760,73.999580 15.225157,73.999580 
	C15.225157,154.279617 15.225157,233.889740 15.225139,314.499939 
M313.276093,94.770088 
	C298.198181,108.950356 287.655792,126.138298 279.976715,145.192810 
	C267.740112,175.556305 263.178558,207.378174 262.398895,239.857117 
	C261.554840,275.019104 264.498901,309.791840 276.079712,343.239838 
	C280.296112,355.417816 285.589996,367.423187 291.955627,378.618347 
	C309.954681,410.273071 337.415833,427.447876 373.953735,430.362061 
	C412.756165,433.456879 447.598663,424.384674 477.268036,398.384583 
	C485.032440,391.580414 492.737549,384.687927 500.095428,377.455139 
	C501.932892,375.648956 503.223907,372.367950 503.234344,369.758667 
	C503.419952,323.268433 503.369049,276.777222 503.369049,230.286240 
	C503.369049,228.666718 503.369080,227.047180 503.369080,225.284866 
	C465.561066,225.284866 428.173096,225.284866 390.723633,225.284866 
	C390.723633,249.641464 390.723633,273.711304 390.723633,298.269287 
	C407.104645,298.269287 423.171875,298.269287 439.402222,298.269287 
	C439.402222,308.585815 439.479065,318.414276 439.317963,328.238892 
	C439.294281,329.685883 438.546387,331.690186 437.448700,332.459808 
	C429.165680,338.267487 421.253418,344.979248 412.206207,349.249298 
	C387.701172,360.815063 363.087128,352.512115 349.740234,328.978241 
	C346.976685,324.105408 344.822754,318.780090 343.123779,313.429626 
	C337.270325,294.995850 336.018188,275.887878 335.608856,256.712006 
	C335.149475,235.190247 335.915619,213.750366 341.040131,192.700302 
	C344.314545,179.249924 349.604004,166.783936 359.608276,156.833923 
	C379.040192,137.507507 409.664032,141.913376 422.465759,166.078049 
	C425.687744,172.159912 427.684265,178.891006 430.401978,185.720718 
	C453.442749,179.619934 476.651001,173.474792 500.169586,167.247498 
	C495.272522,143.032196 488.504730,120.054222 473.576569,100.325974 
	C462.653137,85.890182 448.586243,76.037102 430.760193,72.060364 
	C414.072052,68.337471 397.132080,67.410233 380.102417,68.316208 
	C355.157074,69.643295 332.251282,76.331223 313.276093,94.770088 
z"/>
<path fill="#01088C" opacity="1.000000" stroke="none" 
	d="
M15.225147,313.999908 
	C15.225157,233.889740 15.225157,154.279617 15.225157,73.999580 
	C17.265760,73.999580 19.023327,73.999580 20.780891,73.999580 
	C53.934566,73.999580 87.092461,74.334877 120.240891,73.917542 
	C165.042358,73.353493 194.581451,89.543587 215.105957,137.915314 
	C224.488144,160.027039 228.653793,183.395813 231.083191,207.135391 
	C234.180511,237.401779 233.729218,267.681641 231.011642,297.932983 
	C228.252029,328.652435 220.040710,357.572266 203.186737,383.862488 
	C187.172028,408.843597 163.632339,420.487183 135.215103,424.053436 
	C129.124649,424.817780 122.926849,424.963989 116.777359,424.980896 
	C84.956734,425.068451 53.135742,425.021637 21.314875,425.021637 
	C19.497030,425.021637 17.679186,425.021606 15.225139,425.021606 
	C15.225139,388.006744 15.225139,351.253326 15.225147,313.999908 
M149.373978,323.852631 
	C151.908798,315.113220 155.401550,306.523651 156.796814,297.605957 
	C160.806290,271.979523 160.930115,246.082031 158.528534,220.334503 
	C157.287827,207.032883 154.369659,193.728683 150.685959,180.861801 
	C147.450180,169.559464 139.344284,161.518112 128.243317,156.824982 
	C115.321556,151.362076 101.867424,153.373322 88.456268,153.095398 
	C88.456268,217.318375 88.456268,280.917511 88.456268,344.079559 
	C99.283424,344.079559 109.903900,344.552795 120.464485,343.959656 
	C133.630966,343.220184 143.402176,336.717010 149.373978,323.852631 
z"/>
<path fill="#01088C" opacity="1.000000" stroke="none" 
	d="
M313.531677,94.526733 
	C332.251282,76.331223 355.157074,69.643295 380.102417,68.316208 
	C397.132080,67.410233 414.072052,68.337471 430.760193,72.060364 
	C448.586243,76.037102 462.653137,85.890182 473.576569,100.325974 
	C488.504730,120.054222 495.272522,143.032196 500.169586,167.247498 
	C476.651001,173.474792 453.442749,179.619934 430.401978,185.720718 
	C427.684265,178.891006 425.687744,172.159912 422.465759,166.078049 
	C409.664032,141.913376 379.040192,137.507507 359.608276,156.833923 
	C349.604004,166.783936 344.314545,179.249924 341.040131,192.700302 
	C335.915619,213.750366 335.149475,235.190247 335.608856,256.712006 
	C336.018188,275.887878 337.270325,294.995850 343.123779,313.429626 
	C344.822754,318.780090 346.976685,324.105408 349.740234,328.978241 
	C363.087128,352.512115 387.701172,360.815063 412.206207,349.249298 
	C421.253418,344.979248 429.165680,338.267487 437.448700,332.459808 
	C438.546387,331.690186 439.294281,329.685883 439.317963,328.238892 
	C439.479065,318.414276 439.402222,308.585815 439.402222,298.269287 
	C423.171875,298.269287 407.104645,298.269287 390.723633,298.269287 
	C390.723633,273.711304 390.723633,249.641464 390.723633,225.284866 
	C428.173096,225.284866 465.561066,225.284866 503.369080,225.284866 
	C503.369080,227.047180 503.369049,228.666718 503.369049,230.286240 
	C503.369049,276.777222 503.419952,323.268433 503.234344,369.758667 
	C503.223907,372.367950 501.932892,375.648956 500.095428,377.455139 
	C492.737549,384.687927 485.032440,391.580414 477.268036,398.384583 
	C447.598663,424.384674 412.756165,433.456879 373.953735,430.362061 
	C337.415833,427.447876 309.954681,410.273071 291.955627,378.618347 
	C285.589996,367.423187 280.296112,355.417816 276.079712,343.239838 
	C264.498901,309.791840 261.554840,275.019104 262.398895,239.857117 
	C263.178558,207.378174 267.740112,175.556305 279.976715,145.192810 
	C287.655792,126.138298 298.198181,108.950356 313.531677,94.526733 
z"/>
<path fill="#FDFDFE" opacity="1.000000" stroke="none" 
	d="
M149.202942,324.184387 
	C143.402176,336.717010 133.630966,343.220184 120.464485,343.959656 
	C109.903900,344.552795 99.283424,344.079559 88.456268,344.079559 
	C88.456268,280.917511 88.456268,217.318375 88.456268,153.095398 
	C101.867424,153.373322 115.321556,151.362076 128.243317,156.824982 
	C139.344284,161.518112 147.450180,169.559464 150.685959,180.861801 
	C154.369659,193.728683 157.287827,207.032883 158.528534,220.334503 
	C160.930115,246.082031 160.806290,271.979523 156.796814,297.605957 
	C155.401550,306.523651 151.908798,315.113220 149.202942,324.184387 
z"/>
</svg>